<svg width="36" height="36" viewBox="0 0 36 36" fill="none" xmlns="http://www.w3.org/2000/svg">
<rect width="36" height="36" rx="8" fill="#DBEAFE"/>
<path d="M20 21C20.2833 21 20.5292 20.8958 20.7375 20.6875C20.9458 20.4792 21.05 20.2333 21.05 19.95C21.05 19.6667 20.9458 19.4208 20.7375 19.2125C20.5292 19.0042 20.2833 18.9 20 18.9C19.7167 18.9 19.4708 19.0042 19.2625 19.2125C19.0542 19.4208 18.95 19.6667 18.95 19.95C18.95 20.2333 19.0542 20.4792 19.2625 20.6875C19.4708 20.8958 19.7167 21 20 21ZM19.25 17.8H20.75C20.75 17.3167 20.8 16.9625 20.9 16.7375C21 16.5125 21.2333 16.2167 21.6 15.85C22.1 15.35 22.4333 14.9458 22.6 14.6375C22.7667 14.3292 22.85 13.9667 22.85 13.55C22.85 12.8 22.5875 12.1875 22.0625 11.7125C21.5375 11.2375 20.85 11 20 11C19.3167 11 18.7208 11.1917 18.2125 11.575C17.7042 11.9583 17.35 12.4667 17.15 13.1L18.5 13.65C18.65 13.2333 18.8542 12.9208 19.1125 12.7125C19.3708 12.5042 19.6667 12.4 20 12.4C20.4 12.4 20.725 12.5125 20.975 12.7375C21.225 12.9625 21.35 13.2667 21.35 13.65C21.35 13.8833 21.2833 14.1042 21.15 14.3125C21.0167 14.5208 20.7833 14.7833 20.45 15.1C19.9 15.5833 19.5625 15.9625 19.4375 16.2375C19.3125 16.5125 19.25 17.0333 19.25 17.8ZM14 24C13.45 24 12.9792 23.8042 12.5875 23.4125C12.1958 23.0208 12 22.55 12 22V10C12 9.45 12.1958 8.97917 12.5875 8.5875C12.9792 8.19583 13.45 8 14 8H26C26.55 8 27.0208 8.19583 27.4125 8.5875C27.8042 8.97917 28 9.45 28 10V22C28 22.55 27.8042 23.0208 27.4125 23.4125C27.0208 23.8042 26.55 24 26 24H14ZM14 22H26V10H14V22ZM10 28C9.45 28 8.97917 27.8042 8.5875 27.4125C8.19583 27.0208 8 26.55 8 26V12H10V26H24V28H10ZM14 10V22V10Z" fill="#2563EB"/>
</svg>
